<svg fill="none" height="11" viewBox="0 0 17 11" width="17" xmlns="http://www.w3.org/2000/svg"><path d="m.0625.296875v10.406225h5.02734c.46582 0 3.67383-.0945 3.67383-3.02341 0-1.83032-1.25903-2.45215-1.89844-2.63672.47022-.22193 1.40625-.74927 1.40625-2.16211 0-.78662-.11206-2.583985-3.32226-2.583985zm11.4609.966795v.94922h3.8848v-.94922zm-9.17574.8086h2.14453c.20215 0 1.56445-.10767 1.56445 1.19531 0 1.11401-.98437 1.23047-1.38867 1.23047h-2.32031zm11.21484 1.00195c-2.9377 0-3.5508 2.55102-3.5508 3.65625 0 3.28053 2.6895 3.65623 3.5508 3.65623 2.3225 0 2.9817-1.50291 3.252-2.33787h-1.6875c-.066.21533-.5582.91406-1.4942.91406-1.5688 0-1.7051-1.22607-1.7051-1.77539h4.9922c.1011-1.89844-.7295-4.11328-3.3574-4.11328zm-.0527 1.42383c.468 0 .8459.13623 1.0722.38672.2263.25268.3933.62182.4395 1.10742h-3.0938c.0088-.13404.0396-.28784.0879-.45703.0484-.17359.1231-.33838.2461-.49219.1231-.15161.2945-.28345.4922-.38672.2022-.10547.4526-.1582.7559-.1582zm-11.16214 1.56445h2.47851c.49219 0 1.65235.0769 1.65235 1.49414 0 1.37329-1.46119 1.37109-1.6875 1.37109h-2.44336z" fill="#fff"/></svg>