<svg fill="none" height="13" viewBox="0 0 13 13" width="13" xmlns="http://www.w3.org/2000/svg"><path d="m3.95117.3125c-1.99731 0-3.63867 1.63916-3.63867 3.63867v5.09766c0 1.99727 1.63916 3.63867 3.63867 3.63867h5.09766c1.99727 0 3.63867-1.6392 3.63867-3.63867v-5.09766c0-1.99731-1.6392-3.63867-3.63867-3.63867zm0 1.125h5.09766c1.39087 0 2.51367 1.1228 2.51367 2.51367v5.09766c0 1.39087-1.1228 2.51367-2.51367 2.51367h-5.09766c-1.39087 0-2.51367-1.1228-2.51367-2.51367v-5.09766c0-1.39087 1.1228-2.51367 2.51367-2.51367zm5.8711 1.23047c-.28345 0-.50977.22632-.50977.50976 0 .28345.22632.50977.50977.50977.28343 0 .50973-.22632.50973-.50977 0-.28344-.2263-.50976-.50973-.50976zm-3.32227.45703c-1.85669 0-3.375 1.51831-3.375 3.375s1.51831 3.375 3.375 3.375 3.375-1.51831 3.375-3.375-1.51831-3.375-3.375-3.375zm0 1.125c1.25024 0 2.25.99976 2.25 2.25s-.99976 2.25-2.25 2.25-2.25-.99976-2.25-2.25.99976-2.25 2.25-2.25z" fill="#fff"/></svg>